# xmcd
#
# Track frame offsets:
#	150
#	11496
#	22825
#	34989
#	47238
#	59397
#	72524
#	86343
#	98988
#	111544
#	125860
#	138851
#	151281
#	162149
#	174926
#	185395
#	195950
#
# Disc length: 2764 seconds
#
# Revision: 1
# Processed by: cddbd v1.5.2PL0 Copyright (c) Steve Scherf et al.
# Submitted via: audiograbber 1.83.01
#
DISCID=df0aca11
DTITLE=slim whitman - six classic albums cd1
DYEAR=2013
DGENRE=Country
TTITLE0=bandera waltz
TTITLE1=how can i tell you
TTITLE2=my heart is broken in three
TTITLE3=my love is growing stale
TTITLE4=there's a rainbow in every teardrop
TTITLE5=love song of the waterfall
TTITLE6=song of the old waterfall
TTITLE7=restless heart
TTITLE8=i talk to the waves
TTITLE9=indian love call
TTITLE10=china doll
TTITLE11=an amateur in love
TTITLE12=keep it a secret
TTITLE13=secret love
TTITLE14=rose marie
TTITLE15=beautiful dreamer
TTITLE16=cattle call
EXTD=
EXTT0=
EXTT1=
EXTT2=
EXTT3=
EXTT4=
EXTT5=
EXTT6=
EXTT7=
EXTT8=
EXTT9=
EXTT10=
EXTT11=
EXTT12=
EXTT13=
EXTT14=
EXTT15=
EXTT16=
PLAYORDER=
